<svg width="21" height="20" viewBox="0 0 21 20" fill="none" xmlns="http://www.w3.org/2000/svg">
<path d="M14.1146 10.053C14.1357 12.323 16.106 13.0784 16.1278 13.088C16.1111 13.1413 15.813 14.1645 15.0898 15.2214C14.4645 16.1352 13.8157 17.0456 12.7935 17.0645C11.7892 17.083 11.4662 16.4689 10.3179 16.4689C9.16997 16.4689 8.81114 17.0456 7.86039 17.083C6.87375 17.1204 6.1224 16.0949 5.49204 15.1845C4.20391 13.3222 3.21952 9.92207 4.54131 7.62694C5.19795 6.48717 6.37141 5.76542 7.6451 5.74692C8.61396 5.72844 9.52842 6.39873 10.1207 6.39873C10.7126 6.39873 11.8239 5.59264 12.9922 5.71103C13.4813 5.73138 14.8541 5.90858 15.7356 7.19893C15.6646 7.24297 14.0976 8.15523 14.1146 10.053ZM12.227 4.47896C12.7508 3.8449 13.1034 2.96223 13.0072 2.08398C12.2521 2.11433 11.3391 2.58712 10.7976 3.22083C10.3122 3.78201 9.88714 4.68022 10.0018 5.54108C10.8434 5.60619 11.7031 5.11342 12.227 4.47896Z" fill="black"/>
</svg>
