<svg xmlns="http://www.w3.org/2000/svg" width="28" height="27" fill="none"><g filter="url(#a)"><path fill="#fff" fill-rule="evenodd" d="M17.257 4.136 15.591 2.47a2.25 2.25 0 0 0-3.182 0l-1.667 1.666H8.386a2.25 2.25 0 0 0-2.25 2.25v2.357L4.47 10.409a2.25 2.25 0 0 0 0 3.182l1.666 1.666v2.357a2.25 2.25 0 0 0 2.25 2.25h2.357l1.666 1.666a2.25 2.25 0 0 0 3.182 0l1.666-1.666h2.357a2.25 2.25 0 0 0 2.25-2.25v-2.357l1.666-1.666a2.25 2.25 0 0 0 0-3.182l-1.666-1.666V6.386a2.25 2.25 0 0 0-2.25-2.25h-2.357Zm-.84 1.28c.14.14.33.22.53.22h2.667a.75.75 0 0 1 .75.75v2.667c0 .2.079.39.22.53l1.886 1.887a.75.75 0 0 1 0 1.06l-1.886 1.886a.75.75 0 0 0-.22.53v2.668a.75.75 0 0 1-.75.75h-2.667a.75.75 0 0 0-.53.22L14.53 20.47a.75.75 0 0 1-1.06 0l-1.886-1.886a.75.75 0 0 0-.53-.22H8.385a.75.75 0 0 1-.75-.75v-2.667a.75.75 0 0 0-.22-.53L5.53 12.53a.75.75 0 0 1 0-1.06l1.886-1.886a.75.75 0 0 0 .22-.53V6.385a.75.75 0 0 1 .75-.75h2.667a.75.75 0 0 0 .53-.22L13.47 3.53a.75.75 0 0 1 1.06 0l1.886 1.886Z" clip-rule="evenodd"/><path fill="#35B9E9" d="M16.947 5.636a.75.75 0 0 1-.53-.22L14.53 3.53a.75.75 0 0 0-1.06 0l-1.886 1.886a.75.75 0 0 1-.53.22H8.385a.75.75 0 0 0-.75.75v2.667a.75.75 0 0 1-.22.53L5.53 11.47a.75.75 0 0 0 0 1.06l1.886 1.886c.14.14.22.332.22.53v2.668c0 .414.336.75.75.75h2.667c.2 0 .39.079.53.22l1.887 1.886a.75.75 0 0 0 1.06 0l1.886-1.886a.75.75 0 0 1 .53-.22h2.668a.75.75 0 0 0 .75-.75v-2.667c0-.2.079-.39.22-.53l1.886-1.887a.75.75 0 0 0 0-1.06l-1.886-1.886a.75.75 0 0 1-.22-.53V6.385a.75.75 0 0 0-.75-.75h-2.667Z"/><path fill="#fff" fill-rule="evenodd" d="M18.03 10.03 13 15.06l-2.531-2.53 1.06-1.06L13 12.94l3.97-3.97 1.06 1.06Z" clip-rule="evenodd"/></g><defs><filter id="a" width="30" height="30" x="-1" y="-1.5" color-interpolation-filters="sRGB" filterUnits="userSpaceOnUse"><feFlood flood-opacity="0" result="BackgroundImageFix"/><feColorMatrix in="SourceAlpha" result="hardAlpha" values="0 0 0 0 0 0 0 0 0 0 0 0 0 0 0 0 0 0 127 0"/><feOffset dy="1.5"/><feGaussianBlur stdDeviation="1.5"/><feColorMatrix values="0 0 0 0 0.105882 0 0 0 0 0.109804 0 0 0 0 0.113725 0 0 0 0.04 0"/><feBlend in2="BackgroundImageFix" result="effect1_dropShadow_2030_26812"/><feBlend in="SourceGraphic" in2="effect1_dropShadow_2030_26812" result="shape"/></filter></defs></svg>