<svg width="25" height="24" viewBox="0 0 25 24" fill="none" xmlns="http://www.w3.org/2000/svg">
<path d="M16.0234 8V13.5C16.0234 14.8807 17.1427 16 18.5234 16C20.7043 16 21.0234 13.7332 21.0234 12C21.0234 7.02944 16.994 3 12.0234 3C7.05287 3 3.02344 7.02944 3.02344 12C3.02344 16.9706 7.05287 21 12.0234 21C13.0753 21 14.0851 20.8195 15.0234 20.4879M16.0234 12C16.0234 14.2091 14.2326 16 12.0234 16C9.8143 16 8.02344 14.2091 8.02344 12C8.02344 9.79086 9.8143 8 12.0234 8C14.2326 8 16.0234 9.79086 16.0234 12Z" stroke="none" stroke-width="2" stroke-linecap="round" stroke-linejoin="round"/>
</svg>
