<svg width="21" height="20" viewBox="0 0 21 20" fill="none" xmlns="http://www.w3.org/2000/svg">
<path d="M10.1758 8.63672V11.5413H14.2945C14.1137 12.4754 13.5709 13.2663 12.7569 13.7981L15.2407 15.6868C16.6878 14.3777 17.5227 12.455 17.5227 10.1709C17.5227 9.63908 17.474 9.12767 17.3836 8.6368L10.1758 8.63672Z" fill="#4285F4"/>
<path d="M3.34435 6.63867C2.82257 7.64773 2.52344 8.78639 2.52344 10C2.52344 11.2136 2.82257 12.3523 3.34435 13.3613C3.34435 13.3681 5.89079 11.425 5.89079 11.425C5.73773 10.975 5.64725 10.4977 5.64725 9.99993C5.64725 9.50214 5.73773 9.02489 5.89079 8.57489L3.34435 6.63867Z" fill="#FBBC05"/>
<path d="M10.1758 5.48638C11.3029 5.48638 12.3048 5.86819 13.1049 6.60457L15.2964 4.45685C13.9676 3.24323 12.2422 2.5 10.1758 2.5C7.18418 2.5 4.60303 4.1841 3.34375 6.63866L5.89011 8.57504C6.49537 6.80228 8.18603 5.48638 10.1758 5.48638Z" fill="#EA4335"/>
<path d="M5.88682 11.4277L5.32663 11.848L3.34375 13.3616C4.60303 15.8093 7.18402 17.5003 10.1757 17.5003C12.242 17.5003 13.9743 16.8321 15.2406 15.6866L12.7568 13.798C12.075 14.248 11.2053 14.5207 10.1757 14.5207C8.18587 14.5207 6.49528 13.2048 5.88995 11.4321L5.88682 11.4277Z" fill="#34A853"/>
</svg>
